PathFileType	4	(X/Y/Z)	/Users/visionmauri/Downloads/Videos/OAW08-top_Sports2D/OAW08-top_Sports2D_px_person00.trc
DataRate	CameraRate	NumFrames	NumMarkers	Units	OrigDataRate	OrigDataStartFrame	OrigNumFrames
30.0	30.0	10	22	m	30.0	1876	2144
Frame#	Time	Hip			RHip			RKnee			RAnkle			RBigToe			RSmallToe			RHeel			LHip			LKnee			LAnkle			LBigToe			LSmallToe			LHeel			Neck			Head			Nose			RShoulder			RElbow			RWrist			LShoulder			LElbow			LWrist			
		X1	Y1	Z1	X2	Y2	Z2	X3	Y3	Z3	X4	Y4	Z4	X5	Y5	Z5	X6	Y6	Z6	X7	Y7	Z7	X8	Y8	Z8	X9	Y9	Z9	X10	Y10	Z10	X11	Y11	Z11	X12	Y12	Z12	X13	Y13	Z13	X14	Y14	Z14	X15	Y15	Z15	X16	Y16	Z16	X17	Y17	Z17	X18	Y18	Z18	X19	Y19	Z19	X20	Y20	Z20	X21	Y21	Z21	X22	Y22	Z22
1876	62.56251361020377	556.6847538410761	1289.861917064011	0.0	589.5535873813628	1304.9145214297623	0.0	596.350429393534	1550.4552585232493	0.0	550.9327280578469	1766.4824650918815	0.0	643.0394978811303	1824.5571179784392	0.0	629.579181828963	1841.127793075124	0.0	512.6562002184494	1802.5147058460263	0.0	519.722716738911	1287.3784956013187	0.0	554.6272886605726	1493.1410573127648	0.0	515.3207408258526	1690.1121902035839	0.0	598.1490010765779	1701.790402027389	0.0	569.1568151008111	1682.0536343686942	0.0	488.76017291164015	1713.6827892355773	0.0	635.6046125525676	911.7276009650607	0.0	685.2051603087928	752.3934117779651	0.0	689.2767852284766	846.7577342450617	0.0	684.3874582510365	996.7534952694592	0.0	745.5314902577202	1218.6096118623614	0.0	855.6740904757789	1404.5709847372468	0.0	534.7084522070681	939.0021840121692	0.0	454.6737719544908	1081.8460813103895	0.0	429.01380502337435	1187.50114200001	0.0
1877	62.59586249805569	554.2772538878538	1288.4830732053565	0.0	590.4725503731032	1302.5626893834067	0.0	595.4320006053672	1552.8035684111276	0.0	550.723884654174	1766.4397959100293	0.0	639.4091135988361	1822.4150650286529	0.0	629.647304417512	1841.0233612495415	0.0	514.9109427642754	1803.2828288834642	0.0	513.1710077259542	1285.9842942134464	0.0	543.4593720770716	1492.8466245256948	0.0	509.1721582404371	1697.0817904064036	0.0	586.5552267975838	1722.9129988477507	0.0	555.0852775417337	1706.0571186728046	0.0	485.3577295853911	1723.8354244269324	0.0	630.0966330816846	908.3342165369342	0.0	675.6338318959986	750.9591719711477	0.0	680.870135530389	844.6414588885473	0.0	687.0746744027052	990.6384448124988	0.0	747.7722889269176	1206.2973746606297	0.0	859.3458214079745	1383.900548596108	0.0	523.9816198112266	936.2271984548448	0.0	446.6040731500122	1083.7732516902752	0.0	415.32564772117786	1203.4372354264785	0.0
1878	62.62921138590761	551.6979998328139	1287.860973662035	0.0	591.6128904240995	1302.10767481893	0.0	595.0483806275537	1553.3295182985855	0.0	550.3360531313497	1766.7455426628035	0.0	636.2915097651642	1819.8459123735197	0.0	629.3244871269616	1840.9034466627313	0.0	515.7422817760154	1803.6151406292443	0.0	507.54535688629153	1285.8996439277641	0.0	535.1990450525874	1492.550834985087	0.0	504.8924380308933	1701.1696690072656	0.0	580.4476723441966	1730.3218346268645	0.0	547.8990784493071	1718.7288731739536	0.0	484.2627877081434	1729.540197366156	0.0	625.4135712719159	903.661111074771	0.0	666.509493835796	749.2122314695732	0.0	674.7211198316247	840.1569055986765	0.0	688.7000194452124	984.268523684508	0.0	748.0168713788112	1196.076976084555	0.0	857.8384534911752	1365.2289358114963	0.0	515.7633210821447	932.8140725234161	0.0	441.1116929790158	1089.52471838631	0.0	407.3038062180585	1220.4474306355967	0.0
1879	62.66256027375953	549.784594212791	1286.8117277001022	0.0	592.8623564163909	1302.9606964775328	0.0	595.2213744740981	1552.208698835469	0.0	550.6931634868596	1767.3471873801313	0.0	635.3272171430301	1818.485605555644	0.0	629.3117039948289	1840.7026349512646	0.0	516.3311006596484	1804.5259157836117	0.0	504.14238583020506	1285.9864244113078	0.0	529.4521174559962	1492.886802928938	0.0	500.7969617356247	1707.106646670136	0.0	576.5221571387743	1730.907644507777	0.0	544.5770484164243	1725.5407838907004	0.0	483.7842916121212	1735.6732639731692	0.0	619.5689654173243	899.2728643699428	0.0	656.3266573982297	746.6825483739261	0.0	666.727349809187	834.8534125882477	0.0	688.8394007669547	977.0570965987704	0.0	746.3982162275375	1186.614654360363	0.0	852.8606620957162	1347.6724065758792	0.0	507.90343423391147	931.2183439524198	0.0	436.7303889659565	1097.3147487222143	0.0	401.33155255905797	1233.4806959595005	0.0
1880	62.69590916161145	549.2856864403278	1285.2424611983402	0.0	594.6689940850843	1304.2617419824965	0.0	596.5047823296826	1549.156269677609	0.0	552.1447504372593	1767.6740839975607	0.0	636.3366391151771	1818.9776206985343	0.0	630.4591658882589	1840.109425450461	0.0	518.9429604671735	1805.8374847305474	0.0	502.86636058191243	1285.4091174837542	0.0	524.6055151186874	1493.522125669686	0.0	497.3822453630698	1715.8711277865339	0.0	573.1359702419047	1733.6915991566855	0.0	542.6107340389233	1736.652821877483	0.0	483.7108322050394	1744.2628594153955	0.0	612.6674521811584	895.7935594812097	0.0	645.0993156930394	745.6093226484413	0.0	658.2310070531009	831.0870464106852	0.0	688.0269572254809	970.2512972018338	0.0	743.0793670520097	1178.5342692285778	0.0	845.0329768432699	1330.873251269642	0.0	499.29686851693543	931.6283815273658	0.0	433.06349722687935	1104.9557538880026	0.0	397.1437124747295	1243.6799889218237	0.0
1881	62.729258049463375	549.193097062643	1282.4619417452714	0.0	596.6348046763836	1303.936719523714	0.0	600.0686270560967	1542.9002450184062	0.0	554.583343787918	1766.8133546703943	0.0	638.3276505376011	1819.622186858651	0.0	633.1789879234913	1838.4716462224305	0.0	523.5198824689135	1806.3775160228931	0.0	501.45092648243224	1284.2211153410956	0.0	519.6021029759282	1493.8144074643042	0.0	496.0015197495287	1724.713922875569	0.0	571.2710719268134	1739.4764809550445	0.0	541.4313777443917	1752.3769829808746	0.0	483.89424188747125	1753.9210124688707	0.0	605.8492942631631	892.4980965666678	0.0	633.7312302411989	747.0737674141117	0.0	651.2773912891464	829.2027707615404	0.0	687.0224320884354	964.2685871813285	0.0	738.0339523166199	1172.4475533390894	0.0	833.7470588526719	1315.037591576142	0.0	490.17210726645476	931.6652968134979	0.0	430.00641859098863	1111.3686553418731	0.0	395.5463708392744	1253.2969672856168	0.0
1882	62.7626069373153	548.0039464295846	1278.3464850796524	0.0	598.1490163440328	1301.7433446548162	0.0	606.5930983913737	1534.6999258905196	0.0	557.3719483133535	1764.6077485538399	0.0	640.9304260536961	1818.7362888487166	0.0	636.5327204399803	1835.9340889832733	0.0	527.6035363942892	1805.9104668316024	0.0	498.22554799101107	1283.387207080176	0.0	514.5614022276982	1493.880923368987	0.0	496.4859684386953	1729.6247484076578	0.0	570.6311034839193	1739.3994707817687	0.0	539.6620519739574	1761.0915506955266	0.0	484.1221215774116	1761.6061022546721	0.0	599.2078459474312	888.1834148419266	0.0	622.4229719713255	747.4872921079941	0.0	645.3119190565911	826.3782864108307	0.0	686.0191036963607	958.5074850223664	0.0	731.8177213611319	1167.541604688079	0.0	818.6490338034785	1299.0393655846538	0.0	481.42410205356026	929.840998796044	0.0	427.4025534249107	1116.7467052309935	0.0	397.36153728533975	1262.151208464693	0.0
1883	62.79595582516722	546.0749636450764	1274.3040288229192	0.0	599.4615120782528	1300.5149769252175	0.0	615.4254874235355	1528.2084521769905	0.0	560.2866873203984	1761.9038089116937	0.0	644.331968850176	1816.9020509056008	0.0	638.9313774963575	1833.4818741431604	0.0	529.7535925566483	1804.7722786836334	0.0	494.8210408842758	1283.5384224714721	0.0	509.98635616538155	1493.8515403532977	0.0	497.4194019500463	1728.1816976684263	0.0	566.8139468211473	1727.9563223786663	0.0	534.9220320320063	1754.3044936647218	0.0	484.3956946384356	1764.2203680117661	0.0	592.4959749265917	882.1785656586932	0.0	610.8783534444777	743.2774783582045	0.0	638.8378968160486	820.3587754206463	0.0	684.3301624498023	953.1783613940026	0.0	725.473624339778	1162.10737110131	0.0	800.4481048210603	1281.7714298475871	0.0	473.6364753703592	927.5268645941803	0.0	424.7817633735415	1120.7467556159643	0.0	401.6724754187412	1268.1327085368148	0.0
1884	62.829304713019134	544.4286546659656	1269.848536111757	0.0	600.3588932340932	1300.0117684275776	0.0	624.674588314116	1523.227830899666	0.0	564.0887120430842	1759.0781347690865	0.0	648.2627364005027	1813.638401576736	0.0	640.25726538045	1830.571020279385	0.0	531.3193522236131	1801.8588745739996	0.0	492.8623326153977	1283.8164662038355	0.0	506.4200648430513	1492.5376678547389	0.0	498.0030733644018	1721.0274043776112	0.0	555.4583025002146	1711.4183067723163	0.0	526.2268783467183	1735.3554970084156	0.0	485.2366830403008	1760.0289502683775	0.0	586.0031722367173	875.5318749455879	0.0	599.8183474955537	736.9367317988233	0.0	631.219220830459	813.9768586614596	0.0	681.4103518487955	949.211299437899	0.0	719.7317363387867	1154.6917727744917	0.0	780.9462574767898	1264.376564517173	0.0	467.021046742583	926.4258327262137	0.0	421.7525620057461	1122.3550372214852	0.0	405.88407240444127	1269.4907921879694	0.0
1885	62.862653600871056	543.1765236553164	1263.2536826215437	0.0	600.2384368052707	1296.2032769641496	0.0	632.0692796964244	1516.1662195913163	0.0	569.4845263591668	1754.6758777438213	0.0	651.631690392317	1804.8076803382899	0.0	641.9738534107512	1823.1087858124918	0.0	535.1599667261421	1795.1720676142588	0.0	491.32239935183964	1282.1866648566206	0.0	504.28298702374695	1489.269953186527	0.0	498.1906179032081	1712.2598309105665	0.0	538.6058442558405	1699.8462466896349	0.0	513.733123076785	1715.2650962049072	0.0	487.4876329254235	1752.1194853666764	0.0	580.2194822924638	870.8417315509145	0.0	591.0201725718731	733.6855757338318	0.0	623.426663139494	811.8788199540032	0.0	677.96450530632	946.6354674163596	0.0	714.8873666353461	1144.8577166569225	0.0	762.570208886358	1248.9108267148988	0.0	462.0790212767724	925.8983780294408	0.0	418.4403001789773	1121.387555826088	0.0	407.44592901099895	1266.843499358423	0.0
